 <svg version="1.0" xmlns="http://www.w3.org/2000/svg" width="700.000000pt" height="700.000000pt" viewBox="0 0 700.000000 700.000000" preserveAspectRatio="xMidYMid meet">
<metadata>
Created by potrace 1.12, written by Peter Selinger 2001-2015
</metadata>
<g transform="translate(0.000000,700.000000) scale(0.100000,-0.100000)" fill="#000000" stroke="none">
<path d="M0 3500 l0 -3500 3500 0 3500 0 0 3500 0 3500 -3500 0 -3500 0 0
-3500z m6561 2185 c13 -9 12 -841 -1 -866 -11 -19 -55 -19 -3060 -19 -3005 0
-3049 0 -3060 19 -6 13 -10 169 -10 440 0 354 2 421 14 428 16 9 6102 7 6117
-2z m-3 -1747 c16 -16 17 -839 2 -869 -11 -19 -55 -19 -3060 -19 -3005 0
-3049 0 -3060 19 -14 27 -14 835 0 862 11 19 55 19 3058 19 2357 0 3051 -3
3060 -12z m2 -1757 c13 -25 14 -857 1 -866 -12 -7 -6110 -7 -6122 1 -13 8 -12
840 1 865 11 19 55 19 3060 19 3005 0 3049 0 3060 -19z"></path>
</g>
</svg>