<svg version="1.0" xmlns="http://www.w3.org/2000/svg" width="100%" height="356" viewBox="0 0 700.000000 700.000000" preserveAspectRatio="xMidYMid meet">
<metadata>
Created by potrace 1.12, written by Peter Selinger 2001-2015
</metadata>
<g transform="translate(0.000000,700.000000) scale(0.100000,-0.100000)" fill="#000000" stroke="none">
<path d="M4305 6111 c-3 -5 -20 -13 -38 -16 -17 -4 -58 -20 -89 -36 -60 -30
-75 -49 -104 -135 -9 -26 -31 -79 -50 -117 -30 -63 -34 -78 -32 -147 0 -42 -2
-82 -6 -89 -4 -6 -25 -20 -46 -31 -22 -11 -62 -40 -90 -65 -28 -25 -55 -45
-61 -45 -25 0 -136 -122 -159 -172 -12 -29 -27 -62 -32 -73 -11 -26 -4 -272
12 -380 6 -44 15 -173 18 -287 6 -188 9 -209 28 -235 24 -33 74 -60 125 -68
71 -11 73 -16 75 -181 1 -82 5 -162 9 -179 27 -129 75 -254 112 -296 8 -9 16
-39 19 -65 30 -275 41 -517 25 -549 -6 -11 -12 -63 -15 -115 -5 -117 -23 -277
-33 -293 -4 -7 -11 -39 -15 -72 -4 -33 -12 -91 -18 -130 -5 -38 -12 -88 -14
-110 -3 -22 -10 -83 -16 -135 -9 -75 -28 -315 -29 -365 0 -34 19 -231 29 -290
6 -38 13 -83 15 -100 8 -71 46 -193 71 -232 22 -35 69 -55 117 -50 54 6 98 20
130 42 27 17 46 17 180 -1 45 -6 49 -9 72 -53 27 -54 55 -76 117 -92 84 -21
95 -21 136 0 51 26 78 26 156 2 119 -38 142 -42 191 -37 87 9 139 17 160 26
11 4 34 13 52 20 45 17 70 47 57 68 -22 34 -102 70 -232 102 -23 6 -57 24 -75
39 -17 16 -51 38 -74 50 -27 13 -45 30 -49 45 -8 33 1 151 16 206 6 25 11 56
11 70 -12 227 -20 322 -31 355 -13 39 -19 128 -39 555 -6 118 -13 240 -16 270
-3 30 -10 100 -15 155 -22 244 -50 461 -70 550 -6 28 -17 86 -25 130 -25 139
-46 231 -70 294 -22 61 -8 79 91 114 136 48 244 137 258 212 15 79 69 165 178
285 109 118 122 132 157 158 48 36 62 76 85 234 12 85 26 118 51 118 7 0 35
10 64 21 l51 22 0 71 c-1 62 -3 73 -24 88 -25 18 -37 21 -84 19 -26 -1 -44
-14 -96 -67 l-63 -67 -71 -6 c-81 -8 -108 -26 -147 -101 -47 -89 -97 -143
-150 -162 -28 -10 -59 -18 -70 -18 -36 0 -89 24 -145 65 -54 40 -118 75 -171
94 -19 7 -32 24 -45 58 -43 112 -139 262 -168 263 -25 1 -56 39 -56 69 0 27 5
31 38 41 45 11 71 37 102 100 13 25 36 62 52 83 17 21 50 68 75 104 110 165
112 192 17 355 -22 37 -79 90 -113 104 -38 16 -196 20 -206 5z m842 -1467 c4
-10 -7 -29 -30 -52 -31 -31 -37 -33 -43 -19 -7 20 34 87 54 87 7 0 15 -7 19
-16z m-717 -2904 c0 -93 -4 -150 -10 -150 -6 0 -10 57 -10 150 0 93 4 150 10
150 6 0 10 -57 10 -150z m18 -242 c-4 -74 -22 -84 -26 -14 -4 54 2 76 18 76 7
0 10 -23 8 -62z"></path>
<path d="M2715 6006 c-52 -12 -181 -73 -222 -106 -17 -14 -43 -33 -58 -44 -15
-10 -35 -32 -46 -50 -24 -39 -26 -118 -3 -137 9 -7 31 -37 50 -66 31 -49 34
-60 34 -131 0 -55 6 -93 21 -132 12 -30 24 -74 26 -97 5 -40 3 -43 -24 -48
-15 -4 -48 -13 -72 -21 -55 -17 -125 -18 -139 -1 -5 6 -29 48 -52 92 -23 44
-59 109 -80 145 -83 140 -104 178 -147 260 -24 47 -50 88 -56 92 -35 22 -87
-7 -87 -50 0 -11 11 -33 24 -49 13 -15 35 -50 50 -78 15 -27 40 -70 56 -95 17
-25 33 -53 36 -63 4 -10 17 -37 30 -60 81 -150 122 -240 120 -265 -3 -26 -5
-27 -62 -25 -33 1 -81 5 -109 8 -45 6 -56 3 -109 -29 -32 -20 -61 -36 -65 -36
-18 0 -72 -72 -105 -137 -32 -65 -40 -73 -64 -73 -15 0 -33 5 -39 11 -7 7 -24
1 -59 -20 -26 -17 -54 -31 -61 -31 -22 0 -91 -40 -128 -76 -43 -41 -74 -58
-133 -74 -30 -7 -49 -20 -59 -38 -16 -27 -70 -66 -131 -92 -31 -15 -32 -16
-32 -81 l0 -65 63 -12 c34 -7 74 -15 90 -18 16 -4 34 -1 43 7 8 7 34 22 57 33
34 17 45 29 55 63 18 56 40 63 76 21 96 -110 142 -150 280 -242 167 -113 445
-236 533 -236 45 0 98 34 133 86 16 25 30 47 30 49 0 3 16 29 35 59 19 30 35
59 35 64 0 13 25 22 61 22 21 0 29 -5 29 -18 0 -10 5 -23 11 -29 18 -18 3
-181 -21 -238 -5 -11 -16 -45 -25 -75 -9 -30 -24 -66 -34 -80 -24 -37 -67
-138 -81 -190 -6 -25 -22 -80 -36 -124 -23 -71 -26 -93 -25 -233 1 -85 -2
-160 -7 -167 -5 -6 -12 -31 -15 -56 -3 -25 -9 -56 -12 -70 -13 -47 -24 -95
-30 -125 -4 -16 -9 -37 -13 -45 -31 -77 -41 -203 -27 -316 6 -45 3 -57 -27
-110 -61 -106 -70 -119 -109 -146 -51 -36 -53 -72 -7 -114 50 -46 112 -70 203
-78 33 -3 71 -7 85 -9 l25 -2 3 -315 c1 -173 0 -326 -3 -339 -13 -52 -173
-195 -260 -232 -16 -7 -37 -18 -45 -25 -26 -21 -90 -54 -105 -54 -8 0 -29 -9
-49 -20 -75 -45 -52 -85 75 -133 40 -15 76 -17 272 -14 125 2 230 6 234 10 3
4 17 7 30 7 36 0 87 25 117 56 30 33 36 97 11 143 -31 60 -27 354 5 396 4 6
10 24 13 40 14 77 27 126 46 176 12 30 21 64 21 76 0 12 4 24 9 27 7 5 12 28
25 111 4 23 22 21 51 -5 39 -35 106 -62 139 -56 117 21 100 26 188 -60 44 -44
84 -88 90 -99 12 -21 36 -138 45 -219 8 -79 -18 -143 -85 -208 -53 -51 -68
-59 -160 -83 -33 -9 -82 -54 -82 -75 0 -10 13 -29 28 -42 24 -20 48 -32 137
-69 11 -4 49 -10 85 -13 103 -9 125 -13 158 -30 58 -30 131 -16 177 34 22 24
24 103 5 180 -46 180 -48 274 -6 329 6 8 13 81 16 164 4 120 8 151 20 157 8 4
25 12 37 18 13 7 33 12 45 12 42 1 121 52 144 94 22 39 22 40 4 75 -10 20 -30
47 -44 60 -25 23 -26 30 -26 120 0 110 -19 176 -68 238 -53 66 -72 147 -72
314 0 135 -2 151 -25 201 -30 65 -34 104 -45 423 -13 350 -25 427 -95 568 -49
99 -53 129 -29 199 12 36 23 50 50 63 60 28 68 52 76 214 4 81 9 243 11 361 3
182 1 222 -14 262 -22 62 -64 115 -110 138 -83 43 -127 80 -143 121 -9 22 -14
45 -11 50 6 8 -5 52 -26 104 -9 24 -15 53 -34 155 -7 41 -18 92 -24 112 -12
38 -69 127 -106 163 -35 36 -126 95 -154 100 -14 3 -39 10 -56 15 -35 11 -112
9 -170 -4z m405 -627 c0 -81 -24 -77 -28 4 -2 46 0 57 13 57 12 0 15 -13 15
-61z m-810 -725 c0 -9 -27 -54 -59 -99 -78 -110 -84 -122 -91 -180 l-5 -50
-110 2 c-128 1 -192 10 -220 29 -11 8 -26 14 -33 14 -22 0 -112 70 -112 86 0
15 -4 25 -39 92 -27 53 -17 72 40 72 47 0 79 -14 146 -62 29 -21 58 -38 66
-38 7 0 18 -5 24 -11 12 -12 68 -8 138 9 64 16 137 58 185 107 46 47 70 57 70
29z"></path>
</g>
</svg>
